<?xml version="1.0" encoding="UTF-8"?>
<svg version="1.1" viewBox="35 30 932 804" width="233" height="201" xmlns="http://www.w3.org/2000/svg">
    <g>
<path transform="translate(638,39)" d="m0 0h38l18 3 24 10 23 13 17 12 13 11 20 20 13 17 8 13 11 21 10 30 4 22 1 11v27l-3 26-4 18-8 24-8 18-13 21-13 16-9 10-10 9-4 3 9 3 81 25 44 14 10 4 1 2h-267l-3-5-11-28-13-32-11-28-13-32-8-20-3-3-3 9-16 29-7 12-6 11-8 15-9 15-1 2h-3l-17-63-11-44-7-33-2-12v-5h-2l-3 10-16 51-21 69-12 39-9 31-12 41-2 7-3-4-8-19-15-38-13-33-14-38-17-47-5-16-1-5h-2l-3 10-15 37-11 25-9 20-10 21-19 38-13 23-3 3h-53l-9-5-13-10-14-12-16-16-11-14-7-10-11-18-11-23-7-21-6-24-4-32v-35l3-24 5-21 8-24 13-27 16-24 11-13 9-10 14-12 18-12 21-11 16-6 23-6 20-3h35l19 3 15 4 20 8 16 8 18 12 13 11 13 12 11 14 8 11 12 21 10 25 1 5 2-1 8-20 11-20 8-12 9-12 11-12 6-6h2v-2l11-9 14-10 15-9 21-10 21-7 22-5z" fill="#155790"/>
<path transform="translate(487,372)" d="m0 0 2 1 16 49 9 28 6 22v3h3l1-5 12-20 17-29 10-17 11-18 7-11 1-3h3l7 19 13 34 6 16 8 22 5 12v2h96l17 1-4 6h-2l-2 4-13 14-7 8-16 17-9 10-11 12-7 8-7 7-7 8-9 9-1 2h-2l-2 4-17 17-14 16-84 84-8 7-12 12-8 7-16 15-12 11-4 3-5-1-6-5-57-57-8-7-112-112v-2h-2l-7-8-28-28-21-6-133-33-38-9-5-2v-1l10-1h231l2-6 9-17 14-24 15-26 12-20 2-4 4 2 10 26 22 56 26 65 16 38 2-3 11-35 14-43 18-50 11-31 12-31z" fill="#98b2cd"/>
<path transform="translate(253,125)" d="m0 0 11 1 1 48 49 1v36l-50 1v49l-6 1h-25l-2-4v-38l-1-8h-48l-3-1-1-3v-17l1-15 1-1h51v-48l1-1z" fill="#FDFEFD"/>
    </g>
</svg>
